<!--?xml version="1.0" standalone="no"?-->

<svg version="1.0" xmlns="http://www.w3.org/2000/svg" width="300.000000pt" height="300.000000pt" viewBox="0 0 300.000000 300.000000" preserveAspectRatio="xMidYMid meet">
<g transform="translate(0.000000,300.000000) scale(0.100000,-0.100000)" fill="#161616" stroke="none">
<path d="M280 2946 c-89 -25 -160 -79 -197 -149 -40 -78 -42 -124 -42 -1307 0
-1191 0 -1195 43 -1278 25 -48 84 -103 141 -132 l50 -25 1225 0 1225 0 63 34
c67 37 106 79 137 151 19 43 20 77 20 1275 l0 1230 -39 61 c-47 73 -113 120
-195 140 -79 19 -2363 19 -2431 0z m2355 -159 c33 -16 73 -40 88 -55 40 -38
75 -113 86 -185 16 -101 12 -2049 -4 -2118 -25 -111 -121 -211 -220 -230 -56
-11 -2132 -11 -2175 0 -85 22 -141 66 -189 151 -40 71 -41 85 -41 1161 0 985
1 1039 19 1092 36 109 94 169 197 201 43 13 191 14 1114 13 l1065 -2 60 -28z" id="node1" class="node"></path>
<path d="M2507 2696 c-91 -25 -130 -93 -109 -187 7 -28 12 -54 12 -59 0 -5
-24 -37 -53 -72 -29 -35 -64 -79 -77 -98 -14 -19 -53 -71 -88 -115 -35 -44
-75 -93 -88 -110 -13 -16 -89 -112 -169 -212 l-146 -183 -42 0 c-24 0 -56 -8
-75 -20 -45 -27 -59 -26 -128 16 -32 20 -106 61 -164 91 -242 124 -236 119
-239 199 -1 40 -61 101 -108 110 -57 11 -112 -2 -144 -32 -35 -34 -60 -109
-48 -142 21 -55 1 -98 -95 -202 -17 -19 -47 -56 -66 -81 -19 -25 -60 -73 -91
-107 -50 -55 -60 -62 -95 -63 -62 -1 -106 -22 -136 -65 -76 -110 17 -258 150
-238 98 15 163 133 117 214 -20 36 -18 64 6 86 12 10 44 46 71 79 51 61 112
133 182 211 38 43 40 44 85 38 37 -5 57 -1 94 16 42 20 51 21 80 10 17 -8 39
-19 48 -27 8 -7 23 -13 32 -13 9 0 19 -5 22 -10 4 -6 32 -24 63 -40 31 -16
107 -56 167 -89 l110 -58 12 -53 c14 -64 37 -96 83 -121 116 -63 251 42 220
169 -25 101 -26 93 42 179 34 43 81 103 103 131 22 29 60 78 85 110 25 31 63
80 85 109 127 165 170 219 182 226 7 4 13 13 13 18 0 6 14 27 31 49 30 37 33
38 104 42 65 3 78 7 104 32 55 53 63 164 15 218 -14 14 -101 61 -108 57 0 0
-23 -6 -49 -13z" id="node2" class="node"></path>
<path d="M355 927 c-3 -12 -5 -58 -3 -102 l3 -80 310 0 310 0 3 94 c2 69 -1
97 -10 103 -7 4 -147 8 -310 8 l-298 0 -5 -23z" id="node3" class="node"></path>
<path d="M1175 928 c-3 -13 -5 -59 -3 -103 l3 -80 313 -3 313 -2 -3 102 -3
103 -307 3 -308 2 -5 -22z" id="node4" class="node"></path>
<path d="M1996 933 c-2 -10 -4 -56 -3 -103 l2 -85 313 0 314 0 3 90 c1 50 -2
96 -7 103 -8 9 -83 12 -314 12 -280 0 -303 -1 -308 -17z" id="node5" class="node"></path>
<path d="M357 573 c-4 -3 -7 -53 -7 -110 l0 -103 315 0 315 0 0 110 0 110
-308 0 c-170 0 -312 -3 -315 -7z" id="node6" class="node"></path>
<path d="M1177 573 c-4 -3 -7 -53 -7 -110 l0 -103 315 0 315 0 0 110 0 110
-308 0 c-170 0 -312 -3 -315 -7z" id="node7" class="node"></path>
<path d="M1997 563 c-3 -10 -4 -58 -4 -108 l2 -90 312 -3 313 -2 4 22 c3 13 4
61 3 108 l-2 85 -312 3 c-290 2 -312 1 -316 -15z" id="node8" class="node"></path>
</g>
<g transform="translate(0.000000,300.000000) scale(0.100000,-0.100000)" fill="#A0A0A0" stroke="none">


</g>
</svg>